<svg xmlns="http://www.w3.org/2000/svg" width="14" height="14" viewBox="0 0 14 14">
    <g fill="none" fill-rule="evenodd">
        <g fill="#252525" fill-rule="nonzero">
            <g>
                <g>
                    <path d="M12.195 1.094h-1.258V.437c0-.241-.195-.437-.437-.437s-.438.196-.438.438v.656H3.939V.437C3.938.197 3.741 0 3.5 0s-.438.196-.438.438v.656H1.806C.81 1.094 0 1.904 0 2.898v9.297C0 13.19.81 14 1.805 14h10.39C13.19 14 14 13.19 14 12.195V2.898c0-.995-.81-1.804-1.805-1.804zm.93 11.101c0 .514-.416.93-.93.93H1.805c-.514 0-.93-.416-.93-.93V4.95c0-.075.061-.136.137-.136h11.976c.076 0 .137.06.137.136v7.246z" transform="translate(-952 -651) translate(716 623) translate(236 28)"/>
                </g>
            </g>
        </g>
    </g>
</svg>
