<svg xmlns="http://www.w3.org/2000/svg" width="11" height="9" viewBox="0 0 11 9">
    <g fill="none" fill-rule="evenodd">
        <g fill="#23A54B" fill-rule="nonzero">
            <g>
                <g>
                    <g>
                        <path d="M4.7 12.907c-.1.116-.274.125-.386.02L.087 8.96c-.112-.105-.117-.281-.01-.392l1.346-1.411c.106-.111.284-.116.395-.011l2.31 2.167c.111.105.285.096.385-.02l4.51-5.197c.101-.116.279-.129.395-.03l1.485 1.268c.117.1.13.276.03.391l-6.234 7.182z" transform="translate(-786.000000, -321.000000) translate(190.000000, 302.000000) translate(364.000000, 0.000000) translate(232.000000, 15.000000)"/>
                    </g>
                </g>
            </g>
        </g>
    </g>
</svg>
