<svg xmlns="http://www.w3.org/2000/svg" width="65" height="65" viewBox="0 0 65 65">
    <g fill="none" fill-rule="evenodd">
        <g>
            <g>
                <path fill="#252525" fill-rule="nonzero" stroke="#FFF" d="M47.786 18.911c4.346 0 7.982-3.097 8.818-7.2h7.382v-3.6h-7.382c-.836-4.103-4.472-7.2-8.818-7.2-4.347 0-7.983 3.097-8.819 7.2H.986v3.6h37.981c.836 4.103 4.472 7.2 8.819 7.2zm0-14.4c2.977 0 5.4 2.422 5.4 5.4s-2.423 5.4-5.4 5.4c-2.978 0-5.4-2.422-5.4-5.4s2.422-5.4 5.4-5.4zm-14.4 36.9c4.346 0 7.982-3.097 8.818-7.2h21.782v-3.6H42.204c-.836-4.103-4.472-7.2-8.818-7.2-4.347 0-7.983 3.097-8.819 7.2H.986v3.6h23.581c.836 4.103 4.472 7.2 8.819 7.2zm0-14.4c2.977 0 5.4 2.422 5.4 5.4s-2.423 5.4-5.4 5.4c-2.978 0-5.4-2.422-5.4-5.4s2.422-5.4 5.4-5.4zm-14.4 36.9c4.346 0 7.982-3.097 8.818-7.2h36.182v-3.6H27.804c-.836-4.103-4.472-7.2-8.818-7.2-4.347 0-7.983 3.097-8.819 7.2H.986v3.6h9.181c.836 4.103 4.472 7.2 8.819 7.2zm0-14.4c2.977 0 5.4 2.422 5.4 5.4s-2.423 5.4-5.4 5.4c-2.978 0-5.4-2.422-5.4-5.4s2.422-5.4 5.4-5.4z" transform="translate(-774.000000, -890.000000) translate(774.000000, 890.000000)"/>
                <path fill="#FCD344" d="M33.39 38.285c3.59 0 5.904-2.284 5.904-5.874s-2.318-5.875-5.908-5.875c-3.59 0-5.901 2.285-5.901 5.875s2.314 5.874 5.904 5.874z" transform="translate(-774.000000, -890.000000) translate(774.000000, 890.000000)"/>
            </g>
        </g>
    </g>
</svg>
