<svg xmlns="http://www.w3.org/2000/svg" width="13" height="13" viewBox="0 0 13 13">
    <g fill="none" fill-rule="evenodd">
        <g fill="#486CFD">
            <g>
                <path d="M243.56 36.591l4.384 4.381-4.754 4.762c-.142.133-.302.209-.481.226l-4.156.572c-.167-.018-.296-.074-.387-.167-.094-.097-.15-.232-.166-.405.204-1.45.389-2.807.553-4.067.043-.273.156-.476.34-.608l4.667-4.694zm1.904-1.881c.868-.649 1.737-.853 2.609-.612 1.307.36 2.345 1.704 2.466 2.85.08.764-.18 1.513-.783 2.247l-.89.851-4.381-4.361z" transform="translate(-239 -35) translate(1 1)"/>
            </g>
        </g>
    </g>
</svg>
