<svg xmlns="http://www.w3.org/2000/svg" width="16" height="14" viewBox="0 0 16 14">
    <g fill="none" fill-rule="evenodd">
        <g fill="#252525">
            <g>
                <path d="M30 42c.552 0 1 .448 1 1s-.448 1-1 1H16c-.552 0-1-.448-1-1s.448-1 1-1h14zm0-6c.552 0 1 .448 1 1s-.448 1-1 1H16c-.552 0-1-.448-1-1s.448-1 1-1h14zm0-6c.552 0 1 .448 1 1s-.448 1-1 1H16c-.552 0-1-.448-1-1s.448-1 1-1h14z" transform="translate(-15 -100) translate(0 70)"/>
            </g>
        </g>
    </g>
</svg>
