<svg xmlns="http://www.w3.org/2000/svg" width="15" height="15" viewBox="0 0 15 15">
    <g fill="none" fill-rule="evenodd">
        <g fill-rule="nonzero">
            <g>
                <g>
                    <path fill="#486CFD" d="M7.5 0C3.364 0 0 3.365 0 7.5 0 11.636 3.365 15 7.5 15c4.136 0 7.5-3.364 7.5-7.5C15 3.365 11.636 0 7.5 0z" transform="translate(-666 -281) translate(666 277) translate(0 4)"/>
                    <path fill="#FFF" d="M7.5 3.182c-.501 0-.909.408-.909.91 0 .5.408.908.909.908.501 0 .909-.408.909-.909 0-.501-.408-.91-.91-.91zM7.5 6.364c-.377 0-.682.305-.682.681v4.091c0 .377.305.682.682.682.377 0 .682-.305.682-.682v-4.09c0-.377-.305-.682-.682-.682z" transform="translate(-666 -281) translate(666 277) translate(0 4)"/>
                </g>
            </g>
        </g>
    </g>
</svg>
