<svg xmlns="http://www.w3.org/2000/svg" width="75" height="64" viewBox="0 0 75 64">
    <g fill="none" fill-rule="evenodd">
        <g>
            <g transform="translate(-378.000000, -889.000000) translate(378.000000, 889.000000)">
                <path fill="#252525" fill-rule="nonzero" d="M64.422 47.988c2.938-2.178 4.147-5.992 2.998-9.461-1.148-3.47-4.395-5.812-8.054-5.812-3.659 0-6.905 2.343-8.054 5.812-1.148 3.47.06 7.283 2.998 9.46l-1.112.44c-2.692-3.01-6.179-5.203-10.06-6.328 4.353-2.665 6.402-7.895 5.015-12.802C46.767 24.389 42.283 21 37.177 21c-5.106 0-9.59 3.39-10.977 8.297-1.386 4.907.662 10.137 5.016 12.802-3.781 1.094-7.19 3.202-9.854 6.095l-.62-.258c2.924-2.185 4.12-5.995 2.966-9.457-1.153-3.461-4.395-5.797-8.049-5.797-3.653 0-6.895 2.336-8.049 5.797-1.153 3.462.043 7.272 2.968 9.457C4.258 50.106.012 56.036 0 62.709 0 63.422.579 64 1.293 64h72.414C74.42 64 75 63.422 75 62.709c-.034-6.654-4.277-12.558-10.578-14.721zm-10.965-6.715c0-3.252 2.64-5.889 5.896-5.889 3.257 0 5.897 2.637 5.897 5.889 0 3.252-2.64 5.888-5.897 5.888-1.563 0-3.063-.62-4.169-1.724-1.106-1.105-1.727-2.602-1.727-4.164zm5.896 8.47c6.711-.026 12.328 5.077 12.931 11.752H58.63c-.228-3.92-1.534-7.7-3.776-10.925 1.436-.555 2.961-.844 4.5-.852v.026zM28.32 32.493c0-4.864 3.948-8.807 8.819-8.807 4.87 0 8.819 3.943 8.819 8.807 0 4.864-3.948 8.807-8.82 8.807-2.338-.007-4.578-.942-6.227-2.598-1.65-1.656-2.572-3.9-2.565-6.235l-.026.026zm-12.672 2.892c2.387-.01 4.545 1.418 5.466 3.617.92 2.2.422 4.737-1.262 6.426-1.684 1.69-4.223 2.198-6.43 1.288-2.206-.91-3.645-3.058-3.645-5.442 0-3.242 2.624-5.874 5.87-5.889zm0 14.334c1.35-.01 2.694.19 3.982.594-2.332 3.267-3.695 7.125-3.93 11.131H2.766c.615-6.644 6.198-11.727 12.88-11.725zM30 61.469H18.284c.639-9.937 8.896-17.67 18.867-17.67 9.97 0 18.228 7.733 18.866 17.67H30z"/>
                <circle cx="52.5" cy="10.5" r="9.5" fill="#FCD344" stroke="#252525" stroke-width="2"/>
                <path fill="#252525" fill-rule="nonzero" d="M51.582 14.024c-.082.096-.224.103-.315.017l-3.443-3.26c-.09-.085-.095-.23-.009-.321l1.097-1.16c.087-.09.232-.095.323-.008l1.88 1.78c.092.086.233.078.315-.017l3.674-4.269c.082-.095.227-.106.322-.024l1.21 1.041c.094.082.105.226.023.322l-5.077 5.9z"/>
            </g>
        </g>
    </g>
</svg>
