<svg xmlns="http://www.w3.org/2000/svg" width="24" height="24" viewBox="0 0 24 24">
    <g fill="none" fill-rule="evenodd">
        <g fill-rule="nonzero">
            <g>
                <g>
                    <g>
                        <path fill="#FC8D44" d="M22.56 16.3L14.89 3.58c-.63-.986-1.72-1.583-2.89-1.583-1.17 0-2.26.597-2.89 1.583L1.44 16.3c-.551.92-.57 2.063-.05 3 .602 1.055 1.725 1.705 2.94 1.7h15.34c1.207.013 2.328-.62 2.94-1.66.536-.947.517-2.11-.05-3.04zM12 17c-.552 0-1-.448-1-1s.448-1 1-1 1 .448 1 1-.448 1-1 1zm1-4c0 .552-.448 1-1 1s-1-.448-1-1V9c0-.552.448-1 1-1s1 .448 1 1v4z" transform="translate(-642.000000, -128.000000) translate(195.000000, 36.000000) translate(432.000000, 81.000000) translate(15.000000, 11.000000)"/>
                    </g>
                </g>
            </g>
        </g>
    </g>
</svg>
