<svg xmlns="http://www.w3.org/2000/svg" width="34" height="34" viewBox="0 0 34 34">
    <g fill="none" fill-rule="evenodd">
        <g>
            <g>
                <g transform="translate(-127 -137) translate(121 138) translate(7)">
                    <circle cx="16" cy="16" r="16" stroke="#A5B3FE"/>
                    <circle cx="16" cy="16" r="14" fill="#A5B3FE"/>
                    <path fill="#486CFD" d="M15.814 11.787l4.383 4.381-4.754 4.762c-.141.133-.301.209-.48.227l-4.156.571c-.168-.018-.297-.073-.388-.167-.093-.097-.149-.232-.165-.404.204-1.452.388-2.807.553-4.067.043-.274.156-.477.34-.609l4.667-4.694zm1.904-1.881c.867-.649 1.737-.853 2.608-.612 1.307.36 2.346 1.704 2.466 2.85.08.765-.18 1.513-.782 2.247l-.89.852-4.381-4.362z"/>
                </g>
            </g>
        </g>
    </g>
</svg>
