<svg xmlns="http://www.w3.org/2000/svg" width="66" height="59" viewBox="0 0 66 59">
    <g fill="none" fill-rule="evenodd">
        <g>
            <g>
                <path fill="#252525" fill-rule="nonzero" stroke="#FFF" d="M52.98.229v1.886c0 .72-.007 1.425-.022 2.115l12.023-.001v1.849c0 21.486-19.336 25.975-20.36 26.146l-.04.005h0l-.024-.106c-1.856 2.106-3.761 3.602-5.419 4.893-3.164 2.426-4.746 3.773-4.878 6.872h0v5.795c3.032.404 5.933 1.482 6.987 3.773h4.22c1.977 0 3.69 1.617 3.69 3.773h0-33.485c0-2.021 1.582-3.773 3.691-3.773h4.219c1.055-2.29 3.955-3.504 6.987-3.773h0v-5.795c0-2.964-1.582-4.312-4.746-6.872-1.71-1.331-3.683-2.868-5.595-5.067C15.914 30.718.981 24.979.981 6.21V4.361h11.024c-.016-.73-.024-1.48-.024-2.246h0V.23h41zm-3.69 3.773H15.803c.395 20.617 7.382 26.007 12.392 30.05 1.582 1.212 3.164 2.425 4.35 4.042 1.187-1.617 2.769-2.83 4.351-4.042 5.141-4.043 11.997-9.433 12.392-30.05h0zm3.513 3.926c-.562 8.81-2.405 14.817-4.723 19.12 4.862-2.233 12.179-7.501 12.9-19.121zm-40.639.132H4.847c.654 10.526 6.922 15.84 11.704 18.407-2.154-4.224-3.844-10.04-4.387-18.407z" transform="translate(-1163.000000, -894.000000) translate(1163.000000, 895.000000)"/>
                <path fill="#FCD344" d="M15.5 3.28h34.522c-.36 12.722-2.673 21.205-6.937 25.449-1.036 1.877-4.037 4.092-7.9 7.337-.627.527-1.522 1.472-2.685 2.836-.412-1.027-2.343-2.836-5.794-5.427-7.69-5.833-11.425-15.898-11.206-30.194z" transform="translate(-1163.000000, -894.000000) translate(1163.000000, 895.000000)"/>
            </g>
        </g>
    </g>
</svg>
