<svg xmlns="http://www.w3.org/2000/svg" width="22" height="21" viewBox="0 0 22 21">
    <g fill="none" fill-rule="evenodd">
        <g fill="#FCD344" fill-rule="nonzero">
            <g>
                <g>
                    <g>
                        <g>
                            <path d="M123.695.336l2.714 6.43 6.95.598c.481.042.677.644.311.96l-5.27 4.572 1.579 6.8c.11.473-.402.844-.816.593l-5.972-3.605-5.972 3.605c-.416.25-.926-.122-.817-.593l1.58-6.8-5.272-4.573c-.366-.317-.171-.919.312-.96l6.95-.598 2.714-6.43c.188-.447.82-.447 1.009 0z" transform="translate(-362 -2071) translate(0 2006) translate(250 65)"/>
                        </g>
                    </g>
                </g>
            </g>
        </g>
    </g>
</svg>
