<svg xmlns="http://www.w3.org/2000/svg" width="102" height="102" viewBox="0 0 102 102">
    <g fill="none" fill-rule="evenodd">
        <g>
            <g>
                <path fill="#F0F3FF" stroke="#486CFD" stroke-dasharray="4" stroke-linecap="round" stroke-opacity=".243" d="M2 0h96c1.105 0 2 .895 2 2v96c0 1.105-.895 2-2 2H2c-1.105 0-2-.895-2-2V2C0 .895.895 0 2 0z" transform="translate(-765.000000, -255.000000) translate(766.000000, 256.000000)"/>
                <path fill="#486CFD" fill-rule="nonzero" d="M56 45.989L54.011 44 50 48.011 45.989 44 44 45.989 48.011 50 44 54.011 45.989 56 50 51.989 54.011 56 56 54.011 51.989 50z" transform="translate(-765.000000, -255.000000) translate(766.000000, 256.000000) translate(50.000000, 50.000000) rotate(45.000000) translate(-50.000000, -50.000000)"/>
            </g>
        </g>
    </g>
</svg>
